<svg width="30" height="31" viewBox="0 0 30 31" fill="none" xmlns="http://www.w3.org/2000/svg">
<g id="icon_tub" clip-path="url(#clip0_130_917)">
<g id="Group">
<g id="Group_2">
<path id="Vector" d="M21.2762 18.4731C19.5702 18.4731 18.1877 19.9515 18.1877 21.7742C18.1877 23.5983 19.5707 25.0761 21.2762 25.0761C22.9818 25.0761 24.3643 23.5978 24.3643 21.7742C24.3643 19.951 22.9813 18.4731 21.2762 18.4731ZM21.2762 23.4864C20.3922 23.4864 19.6753 22.7201 19.6753 21.7751C19.6753 20.8291 20.3922 20.0633 21.2762 20.0633C22.1603 20.0633 22.8776 20.8291 22.8776 21.7751C22.8776 22.7201 22.1603 23.4864 21.2762 23.4864Z" fill="white"/>
</g>
<g id="Group_3">
<path id="Vector_2" d="M12.1068 -0.0101318C10.3464 -0.0101318 8.91952 1.51468 8.91952 3.39696C8.91952 5.27924 10.346 6.80357 12.1068 6.80357C13.8676 6.80357 15.2941 5.27973 15.2941 3.39696C15.2936 1.5142 13.8672 -0.0101318 12.1068 -0.0101318ZM12.1063 5.46573C11.0374 5.46573 10.171 4.5396 10.171 3.39648C10.171 2.25384 11.0374 1.32723 12.1063 1.32723C13.1757 1.32723 14.0421 2.25384 14.0421 3.39648C14.0421 4.5396 13.1757 5.46573 12.1063 5.46573Z" fill="white"/>
</g>
<g id="Group_4">
<path id="Vector_3" d="M8.72693 17.6105C7.43326 17.6105 6.38563 18.7303 6.38563 20.1132C6.38563 21.4956 7.43326 22.616 8.72693 22.616C10.0206 22.616 11.0682 21.4956 11.0682 20.1132C11.0682 18.7308 10.0206 17.6105 8.72693 17.6105ZM8.50001 19.5C8.041 19.5 9.65819 20.6039 9.65819 20.1132C9.65819 19.6235 8.041 20.5 8.50001 20.5C8.95857 20.5 9.55705 19.6226 9.55705 20.1123C9.55705 20.6029 8.95857 19.5 8.50001 19.5Z" fill="white"/>
</g>
<g id="Group_5">
<path id="Vector_4" d="M19.0002 9.76265C19.0002 9.76265 22.0402 8.9242 25.1781 11.2565C26.0852 12.0164 26.9435 12.5929 26.3304 13.379C25.9869 13.7195 25.6933 14.0358 24.6144 12.8549C23.5604 12.0949 21.8947 10.9566 19.0002 11.4134C17.8724 11.6498 17.0386 11.9641 15.4445 13.5626C13.8509 15.161 11.4724 16.2877 8.94715 16.0518C6.42189 15.8164 5.09831 14.7939 3.70087 13.5098C3.4068 13.0903 3.4068 12.6447 3.57808 12.3826C3.74936 12.1206 4.41137 11.8585 4.77931 12.2514C5.14725 12.6447 6.8877 14.217 8.60369 14.3216C10.3201 14.4262 12.0366 14.5313 14.3407 12.356C16.6467 10.1821 17.799 10.0247 19.0002 9.76265Z" fill="white"/>
</g>
<g id="Group_6">
<g id="Vector_5">
<mask id="path-5-inside-1_130_917" fill="white">
<path d="M29.1457 26.8156V8.15743C29.1457 7.57909 28.7718 7.5074 28.6218 7.50208H28.1162C27.6227 7.50208 27.5797 8.05862 27.5783 8.24075C27.5783 8.25867 27.5783 8.27368 27.5783 8.29161C27.5783 8.29306 27.5783 8.30129 27.5783 8.30129C27.5797 11.9099 27.5874 26.5545 27.5765 26.8412C27.5642 27.1692 27.5031 28.0076 26.7554 28.7284C25.947 29.4234 25.1378 29.3314 25.1378 29.3314C25.1378 29.3314 4.96056 29.3314 4.48251 29.3048C4.10279 29.2394 3.44078 29.095 2.87664 28.2958C2.31295 27.4966 2.42351 26.4484 2.42351 26.4484V8.31486C2.42351 7.4764 1.74926 7.50256 1.74926 7.50256H1.44204C0.905995 7.50256 0.856604 8.09059 0.853886 8.27901C0.853886 11.7408 0.853886 25.6468 0.853886 26.816C0.853886 28.1529 1.30746 29.2137 2.40176 30.1529C3.4956 31.0916 4.77659 31.0093 4.77659 31.0093C4.77659 31.0093 24.5002 31.0093 25.3584 31.0069C26.2167 31.0044 27.344 30.5903 28.2743 29.4515C29.2037 28.3128 29.1457 26.8156 29.1457 26.8156Z"/>
</mask>
<path d="M29.1457 26.8156V8.15743C29.1457 7.57909 28.7718 7.5074 28.6218 7.50208H28.1162C27.6227 7.50208 27.5797 8.05862 27.5783 8.24075C27.5783 8.25867 27.5783 8.27368 27.5783 8.29161C27.5783 8.29306 27.5783 8.30129 27.5783 8.30129C27.5797 11.9099 27.5874 26.5545 27.5765 26.8412C27.5642 27.1692 27.5031 28.0076 26.7554 28.7284C25.947 29.4234 25.1378 29.3314 25.1378 29.3314C25.1378 29.3314 4.96056 29.3314 4.48251 29.3048C4.10279 29.2394 3.44078 29.095 2.87664 28.2958C2.31295 27.4966 2.42351 26.4484 2.42351 26.4484V8.31486C2.42351 7.4764 1.74926 7.50256 1.74926 7.50256H1.44204C0.905995 7.50256 0.856604 8.09059 0.853886 8.27901C0.853886 11.7408 0.853886 25.6468 0.853886 26.816C0.853886 28.1529 1.30746 29.2137 2.40176 30.1529C3.4956 31.0916 4.77659 31.0093 4.77659 31.0093C4.77659 31.0093 24.5002 31.0093 25.3584 31.0069C26.2167 31.0044 27.344 30.5903 28.2743 29.4515C29.2037 28.3128 29.1457 26.8156 29.1457 26.8156Z" fill="white" stroke="white" stroke-width="40" mask="url(#path-5-inside-1_130_917)"/>
</g>
</g>
</g>
</g>
<defs>
<clipPath id="clip0_130_917">
<rect width="29" height="31" fill="white" transform="translate(0.5)"/>
</clipPath>
</defs>
</svg>
