<svg width="25" height="30" fill="none" xmlns="http://www.w3.org/2000/svg"><ellipse cx="17.669" cy="9.33" rx="1.087" ry="1.085" fill="#fff"/><ellipse cx="6.795" cy="9.33" rx="1.087" ry="1.085" fill="#fff"/><ellipse cx="6.795" cy="22.351" rx="1.087" ry="1.085" fill="#fff"/><ellipse cx="12.232" cy="24.521" rx="1.087" ry="1.085" fill="#fff"/><ellipse cx="3.534" cy="15.775" rx="1.087" ry="1.085" fill="#fff"/><ellipse cx="20.93" cy="15.775" rx="1.087" ry="1.085" fill="#fff"/><ellipse cx="17.669" cy="22.351" rx="1.087" ry="1.085" fill="#fff"/><mask id="a" fill="#fff"><path fill-rule="evenodd" clip-rule="evenodd" d="M17.386 27.058a1.058 1.058 0 011.217.196l1.826 1.875a.682.682 0 00.977-.951l-1.357-1.393c-.426-.438-.362-1.15.097-1.552 2.642-2.314 4.318-5.764 4.318-9.619C24.464 8.648 18.988 3 12.232 3 5.477 3 0 8.648 0 15.614c0 3.815 1.642 7.234 4.236 9.547.453.403.513 1.11.09 1.544l-1.434 1.473a.682.682 0 00.977.951l1.88-1.93a1.058 1.058 0 011.226-.191 11.878 11.878 0 005.257 1.221c1.841 0 3.588-.42 5.154-1.17zm-5.154-.23c6.005 0 10.873-5.02 10.873-11.213S18.237 4.402 12.232 4.402c-6.005 0-10.873 5.02-10.873 11.212 0 6.193 4.868 11.213 10.873 11.213zm-.76-11.53V7.94a.781.781 0 011.563 0v8.183c0 .443-.36.803-.803.803a.76.76 0 01-.76-.76V15.298z"/></mask><path fill-rule="evenodd" clip-rule="evenodd" d="M17.386 27.058a1.058 1.058 0 011.217.196l1.826 1.875a.682.682 0 00.977-.951l-1.357-1.393c-.426-.438-.362-1.15.097-1.552 2.642-2.314 4.318-5.764 4.318-9.619C24.464 8.648 18.988 3 12.232 3 5.477 3 0 8.648 0 15.614c0 3.815 1.642 7.234 4.236 9.547.453.403.513 1.11.09 1.544l-1.434 1.473a.682.682 0 00.977.951l1.88-1.93a1.058 1.058 0 011.226-.191 11.878 11.878 0 005.257 1.221c1.841 0 3.588-.42 5.154-1.17zm-5.154-.23c6.005 0 10.873-5.02 10.873-11.213S18.237 4.402 12.232 4.402c-6.005 0-10.873 5.02-10.873 11.212 0 6.193 4.868 11.213 10.873 11.213zm-.76-11.53V7.94a.781.781 0 011.563 0v8.183c0 .443-.36.803-.803.803a.76.76 0 01-.76-.76V15.298z" fill="#fff"/><path d="M5.748 27.199l-2.866-2.79 2.866 2.79zm1.227-.191l1.764-3.59-1.764 3.59zm-3.106 2.121l2.865 2.79-2.865-2.79zm-.977-.95L.026 25.386l2.866 2.791zm17.157-1.394l2.865-2.79-2.865 2.79zm.097-1.552l-2.635-3.009 2.635 3.01zm-15.91-.072l-2.662 2.985 2.662-2.985zm.09 1.544l2.866 2.791-2.866-2.79zm17.08 1.473l-2.866 2.79 2.865-2.79zm-.977.951l2.865-2.79-2.865 2.79zm-1.826-1.875l-2.866 2.79 2.866-2.79zm-1.217-.196l-1.73-3.606 1.73 3.606zm-1.649 2.987l1.826 1.875 5.731-5.582-1.825-1.874-5.732 5.58zm8.534-4.658l-1.357-1.393-5.731 5.582 1.357 1.393 5.731-5.582zm-1.49 2.855c3.49-3.056 5.683-7.595 5.683-12.628h-8c0 2.677-1.16 5.04-2.953 6.61l5.27 6.018zm5.683-12.628C28.464 6.556 21.312-1 12.232-1v8c4.431 0 8.232 3.74 8.232 8.614h8zM12.232-1C3.152-1-4 6.556-4 15.614h8C4 10.74 7.8 7 12.232 7v-8zM-4 15.614c0 4.98 2.147 9.477 5.574 12.532l5.324-5.97C5.136 20.603 4 18.262 4 15.614h-8zm5.46 8.3L.026 25.388l5.732 5.582 1.434-1.473-5.732-5.581zm5.274 8.006l1.88-1.93-5.732-5.582-1.88 1.93 5.732 5.582zM5.21 30.597a15.878 15.878 0 007.022 1.632v-8a7.878 7.878 0 01-3.493-.811l-3.53 7.18zm7.022 1.632c2.456 0 4.792-.56 6.884-1.564l-3.46-7.213c-1.04.499-2.197.777-3.424.777v8zm0-1.402c8.33 0 14.873-6.928 14.873-15.213h-8c0 4.101-3.192 7.213-6.873 7.213v8zm14.873-15.213C27.105 7.33 20.561.402 12.232.402v8c3.68 0 6.873 3.112 6.873 7.213h8zM12.232.402C3.902.402-2.64 7.33-2.64 15.615h8c0-4.101 3.192-7.213 6.873-7.213v-8zM-2.64 15.615c0 8.284 6.544 15.212 14.873 15.212v-8c-3.68 0-6.873-3.112-6.873-7.213h-8zm11.676-.317v.543h8v-.543h-8zm0 .543v.282h8v-.282h-8zm6.438.325v-.325h-8v.325h8zm0-.325v-.543h-8v.543h8zm0-.543V11.5h-8v3.798h8zm0-3.798V7.94h-8v3.56h8zM9.035 7.94v3.56h8V7.94h-8zm0 3.56v3.798h8V11.5h-8zm3.219-8.34a4.781 4.781 0 00-4.781 4.78h8a3.219 3.219 0 01-3.22 3.22v-8zM9.035 16.123a3.197 3.197 0 013.197-3.197v8a4.803 4.803 0 004.803-4.803h-8zM8.614 29.99a2.943 2.943 0 01-3.404.607l3.53-7.179c-1.827-.898-4.228-.683-5.857.99l5.73 5.582zM.026 31.92a4.682 4.682 0 006.708 0l-5.731-5.582a3.318 3.318 0 014.755 0L.026 31.92zm0-6.533a4.682 4.682 0 000 6.533l5.732-5.582a3.318 3.318 0 010 4.63l-5.732-5.58zm22.888-1.393c1.343 1.38.944 3.305-.132 4.248l-5.271-6.018c-1.995 1.748-2.523 5.098-.328 7.352l5.731-5.582zM12.254 11.16a3.219 3.219 0 01-3.219-3.22h8c0-2.64-2.14-4.78-4.781-4.78v8zM1.574 28.146c-1.063-.948-1.447-2.862-.114-4.231l5.732 5.581c2.18-2.238 1.675-5.565-.294-7.32l-5.324 5.97zm22.697 3.774a4.682 4.682 0 000-6.533L18.54 30.97a3.318 3.318 0 010-4.63l5.731 5.58zm-6.708 0a4.682 4.682 0 006.708 0l-5.731-5.582a3.318 3.318 0 014.754 0l-5.731 5.582zm-5.33-18.994a3.24 3.24 0 013.24 3.24h-8a4.76 4.76 0 004.76 4.76v-8zm9.236 11.538c-1.617-1.66-3.993-1.886-5.813-1.012l3.46 7.212a2.943 2.943 0 01-3.379-.62l5.732-5.58z" fill="#fff" mask="url(#a)"/><path fill="#fff" d="M11.464 4V0h1.5v4z"/><rect x="4.464" width="15.5" height="1.5" rx=".75" fill="#fff"/></svg>