<svg xmlns="http://www.w3.org/2000/svg" xmlns:xlink="http://www.w3.org/1999/xlink"><defs><clipPath id="clip0_95_230"><path d="M0 0h27v34H0z"/></clipPath><clipPath id="clip0_130_911"><path fill="#fff" transform="translate(.5)" d="M0 0h30v32H0z"/></clipPath><clipPath id="clip0_130_917"><path fill="#fff" transform="translate(.5)" d="M0 0h29v31H0z"/></clipPath><clipPath id="clip0_153_267"><path fill="#fff" d="M0 0h33.32v37.61H0z"/></clipPath><clipPath id="clip0_135_3354"><path fill="#fff" d="M0 0h101v18H0z"/></clipPath></defs><symbol id="arrow"><g fill="none"><path stroke="#000" stroke-width="2" d="M0 6h18"/><path d="M24 6l-6.75 5.196V.804L24 6z" fill="#000"/></g></symbol><symbol id="htmlacademy"><g clip-path="url(#clip0_95_230)"><path d="M13.643.016L13.5 0 0 1.407v24.606L13.5 34 27 26.013V1.407L13.643.016zm11.591 25L13.5 31.956 1.766 25.015V14.93l11.685 6.916.02 1.253-8.017-4.743-.011 1.225 8.046 4.809.02 1.286-8.045-4.758-.01 1.226L13.5 26.95l8.124-4.833V16.91l3.62-2.15-.01 10.256zm0-11.564l-3.22 1.88-1.482.875-7.065-4.187-.011 1.225 6.04 3.573-.053.031-.13.076-.86.492-4.986-2.948-.011 1.225 3.936 2.328-.933.61-.021.012-2.971-1.742-.011 1.225 1.947 1.135-1.988 1.186-11.618-6.872 11.638-6.958 11.8 6.834zm0-1.225L13.44 5.31 1.766 12.22V2.99L13.5 1.764 25.234 2.99v9.237z"/></g></symbol><symbol id="icon_alarm"><g fill="none"><ellipse cx="17.669" cy="9.33" rx="1.087" ry="1.085" fill="#fff"/><ellipse cx="6.795" cy="9.33" rx="1.087" ry="1.085" fill="#fff"/><ellipse cx="6.795" cy="22.351" rx="1.087" ry="1.085" fill="#fff"/><ellipse cx="12.232" cy="24.521" rx="1.087" ry="1.085" fill="#fff"/><ellipse cx="3.534" cy="15.775" rx="1.087" ry="1.085" fill="#fff"/><ellipse cx="20.93" cy="15.775" rx="1.087" ry="1.085" fill="#fff"/><ellipse cx="17.669" cy="22.351" rx="1.087" ry="1.085" fill="#fff"/><mask id="a" fill="#fff"><path fill-rule="evenodd" clip-rule="evenodd" d="M17.386 27.058a1.058 1.058 0 011.217.196l1.826 1.875a.682.682 0 00.977-.951l-1.357-1.393c-.426-.438-.362-1.15.097-1.552 2.642-2.314 4.318-5.764 4.318-9.619C24.464 8.648 18.988 3 12.232 3 5.477 3 0 8.648 0 15.614c0 3.815 1.642 7.234 4.236 9.547.453.403.513 1.11.09 1.544l-1.434 1.473a.682.682 0 00.977.951l1.88-1.93a1.058 1.058 0 011.226-.191 11.878 11.878 0 005.257 1.221c1.841 0 3.588-.42 5.154-1.17zm-5.154-.23c6.005 0 10.873-5.02 10.873-11.213S18.237 4.402 12.232 4.402c-6.005 0-10.873 5.02-10.873 11.212 0 6.193 4.868 11.213 10.873 11.213zm-.76-11.53V7.94a.781.781 0 011.563 0v8.183c0 .443-.36.803-.803.803a.76.76 0 01-.76-.76V15.298z"/></mask><path fill-rule="evenodd" clip-rule="evenodd" d="M17.386 27.058a1.058 1.058 0 011.217.196l1.826 1.875a.682.682 0 00.977-.951l-1.357-1.393c-.426-.438-.362-1.15.097-1.552 2.642-2.314 4.318-5.764 4.318-9.619C24.464 8.648 18.988 3 12.232 3 5.477 3 0 8.648 0 15.614c0 3.815 1.642 7.234 4.236 9.547.453.403.513 1.11.09 1.544l-1.434 1.473a.682.682 0 00.977.951l1.88-1.93a1.058 1.058 0 011.226-.191 11.878 11.878 0 005.257 1.221c1.841 0 3.588-.42 5.154-1.17zm-5.154-.23c6.005 0 10.873-5.02 10.873-11.213S18.237 4.402 12.232 4.402c-6.005 0-10.873 5.02-10.873 11.212 0 6.193 4.868 11.213 10.873 11.213zm-.76-11.53V7.94a.781.781 0 011.563 0v8.183c0 .443-.36.803-.803.803a.76.76 0 01-.76-.76V15.298z" fill="#fff"/><path d="M5.748 27.199l-2.866-2.79 2.866 2.79zm1.227-.191l1.764-3.59-1.764 3.59zm-3.106 2.121l2.865 2.79-2.865-2.79zm-.977-.95L.026 25.386l2.866 2.791zm17.157-1.394l2.865-2.79-2.865 2.79zm.097-1.552l-2.635-3.009 2.635 3.01zm-15.91-.072l-2.662 2.985 2.662-2.985zm.09 1.544l2.866 2.791-2.866-2.79zm17.08 1.473l-2.866 2.79 2.865-2.79zm-.977.951l2.865-2.79-2.865 2.79zm-1.826-1.875l-2.866 2.79 2.866-2.79zm-1.217-.196l-1.73-3.606 1.73 3.606zm-1.649 2.987l1.826 1.875 5.731-5.582-1.825-1.874-5.732 5.58zm8.534-4.658l-1.357-1.393-5.731 5.582 1.357 1.393 5.731-5.582zm-1.49 2.855c3.49-3.056 5.683-7.595 5.683-12.628h-8c0 2.677-1.16 5.04-2.953 6.61l5.27 6.018zm5.683-12.628C28.464 6.556 21.312-1 12.232-1v8c4.431 0 8.232 3.74 8.232 8.614h8zM12.232-1C3.152-1-4 6.556-4 15.614h8C4 10.74 7.8 7 12.232 7v-8zM-4 15.614c0 4.98 2.147 9.477 5.574 12.532l5.324-5.97C5.136 20.603 4 18.262 4 15.614h-8zm5.46 8.3L.026 25.388l5.732 5.582 1.434-1.473-5.732-5.581zm5.274 8.006l1.88-1.93-5.732-5.582-1.88 1.93 5.732 5.582zM5.21 30.597a15.878 15.878 0 007.022 1.632v-8a7.878 7.878 0 01-3.493-.811l-3.53 7.18zm7.022 1.632c2.456 0 4.792-.56 6.884-1.564l-3.46-7.213c-1.04.499-2.197.777-3.424.777v8zm0-1.402c8.33 0 14.873-6.928 14.873-15.213h-8c0 4.101-3.192 7.213-6.873 7.213v8zm14.873-15.213C27.105 7.33 20.561.402 12.232.402v8c3.68 0 6.873 3.112 6.873 7.213h8zM12.232.402C3.902.402-2.64 7.33-2.64 15.615h8c0-4.101 3.192-7.213 6.873-7.213v-8zM-2.64 15.615c0 8.284 6.544 15.212 14.873 15.212v-8c-3.68 0-6.873-3.112-6.873-7.213h-8zm11.676-.317v.543h8v-.543h-8zm0 .543v.282h8v-.282h-8zm6.438.325v-.325h-8v.325h8zm0-.325v-.543h-8v.543h8zm0-.543V11.5h-8v3.798h8zm0-3.798V7.94h-8v3.56h8zM9.035 7.94v3.56h8V7.94h-8zm0 3.56v3.798h8V11.5h-8zm3.219-8.34a4.781 4.781 0 00-4.781 4.78h8a3.219 3.219 0 01-3.22 3.22v-8zM9.035 16.123a3.197 3.197 0 013.197-3.197v8a4.803 4.803 0 004.803-4.803h-8zM8.614 29.99a2.943 2.943 0 01-3.404.607l3.53-7.179c-1.827-.898-4.228-.683-5.857.99l5.73 5.582zM.026 31.92a4.682 4.682 0 006.708 0l-5.731-5.582a3.318 3.318 0 014.755 0L.026 31.92zm0-6.533a4.682 4.682 0 000 6.533l5.732-5.582a3.318 3.318 0 010 4.63l-5.732-5.58zm22.888-1.393c1.343 1.38.944 3.305-.132 4.248l-5.271-6.018c-1.995 1.748-2.523 5.098-.328 7.352l5.731-5.582zM12.254 11.16a3.219 3.219 0 01-3.219-3.22h8c0-2.64-2.14-4.78-4.781-4.78v8zM1.574 28.146c-1.063-.948-1.447-2.862-.114-4.231l5.732 5.581c2.18-2.238 1.675-5.565-.294-7.32l-5.324 5.97zm22.697 3.774a4.682 4.682 0 000-6.533L18.54 30.97a3.318 3.318 0 010-4.63l5.731 5.58zm-6.708 0a4.682 4.682 0 006.708 0l-5.731-5.582a3.318 3.318 0 014.754 0l-5.731 5.582zm-5.33-18.994a3.24 3.24 0 013.24 3.24h-8a4.76 4.76 0 004.76 4.76v-8zm9.236 11.538c-1.617-1.66-3.993-1.886-5.813-1.012l3.46 7.212a2.943 2.943 0 01-3.379-.62l5.732-5.58z" fill="#fff" mask="url(#a)"/><path fill="#fff" d="M11.464 4V0h1.5v4z"/><rect x="4.464" width="15.5" height="1.5" rx=".75" fill="#fff"/></g></symbol><symbol id="icon_eat"><g fill="none"><path fill-rule="evenodd" clip-rule="evenodd" d="M19.117.076a1 1 0 011.09.217c.909.908 2.097 2.878 3.059 5.918C24.237 9.28 25 13.508 25 19a1 1 0 01-1 1h-3.5v9a1 1 0 11-2 0V1a1 1 0 01.617-.924zM20.5 18h2.491c-.086-4.816-.786-8.512-1.632-11.186-.278-.88-.57-1.643-.859-2.295V18zM6.5 0a1 1 0 011 1v28a1 1 0 11-2 0V1a1 1 0 011-1z" fill="#fff"/><path fill-rule="evenodd" clip-rule="evenodd" d="M2 0a1 1 0 011 1v5.5c0 .557.192 1.315.7 1.917.48.566 1.314 1.083 2.8 1.083a1 1 0 110 2c-2.015 0-3.43-.733-4.326-1.792A5.068 5.068 0 011 6.5V1a1 1 0 011-1z" fill="#fff"/><path fill-rule="evenodd" clip-rule="evenodd" d="M11 0a1 1 0 00-1 1v5.5a3.07 3.07 0 01-.7 1.917C8.82 8.983 7.984 9.5 6.5 9.5a1 1 0 000 2c2.014 0 3.43-.733 4.326-1.792A5.068 5.068 0 0012 6.5V1a1 1 0 00-1-1z" fill="#fff"/></g></symbol><symbol id="icon_leaf"><g fill="none"><g clip-path="url(#clip0_130_911)"><path d="M28.344 2.767c-.1-.45-.48-.767-.912-.767h-.005c-4.938.033-16.945.916-21.793 8.38-2.518 3.878-2.735 8.913-.644 14.965.016.047.048.079.07.122-.747 1.973-1.037 3.286-1.044 3.323-.11.54.214 1.072.72 1.188a.88.88 0 00.197.022c.433 0 .822-.321.916-.79.02-.102 2.409-10.373 10.854-16.378.431-.306.547-.927.26-1.387-.288-.46-.87-.585-1.3-.277-4.79 3.405-7.739 8.008-9.473 11.656-1.242-4.578-.916-8.377.986-11.305 3.743-5.764 12.622-7.154 17.982-7.448C24.005 5.872 22.745 9.174 22.745 15c0 3.12-.83 5.522-2.465 7.14-2.62 2.591-6.88 2.834-9.993 2.584-.518-.045-.967.371-1.006.922-.04.55.347 1.03.863 1.072.623.051 1.29.082 1.981.082 3.17 0 6.87-.663 9.43-3.194 2.034-2.011 3.065-4.906 3.065-8.605 0-9.099 3.216-11.096 3.232-11.105.39-.209.594-.677.492-1.129z" fill="#fff"/></g></g></symbol><symbol id="icon_tub"><g fill="none"><g clip-path="url(#clip0_130_917)" fill="#fff"><path d="M21.276 18.473c-1.706 0-3.088 1.479-3.088 3.301 0 1.824 1.383 3.302 3.088 3.302 1.706 0 3.088-1.478 3.088-3.302 0-1.823-1.383-3.3-3.088-3.3zm0 5.013c-.884 0-1.6-.766-1.6-1.71 0-.947.716-1.713 1.6-1.713.884 0 1.602.766 1.602 1.712 0 .945-.718 1.711-1.602 1.711zM12.107-.01c-1.76 0-3.187 1.525-3.187 3.407 0 1.882 1.426 3.407 3.187 3.407 1.76 0 3.187-1.524 3.187-3.407S13.867-.01 12.107-.01zm0 5.476c-1.07 0-1.936-.926-1.936-2.07 0-1.142.866-2.069 1.935-2.069 1.07 0 1.936.927 1.936 2.07 0 1.143-.866 2.069-1.936 2.069zM8.727 17.61c-1.294 0-2.341 1.12-2.341 2.503s1.047 2.503 2.34 2.503c1.295 0 2.342-1.12 2.342-2.503 0-1.382-1.047-2.503-2.341-2.503zM8.5 19.5c-.459 0 1.158 1.104 1.158.613 0-.49-1.617.387-1.158.387.459 0 1.057-.877 1.057-.388 0 .49-.598-.612-1.057-.612zM19 9.763s3.04-.839 6.178 1.494c.907.76 1.765 1.336 1.152 2.122-.343.34-.637.657-1.716-.524-1.054-.76-2.72-1.898-5.614-1.442-1.128.237-1.961.551-3.556 2.15-1.593 1.598-3.972 2.725-6.497 2.489-2.525-.236-3.849-1.258-5.246-2.542-.294-.42-.294-.865-.123-1.127.171-.262.833-.524 1.201-.132.368.394 2.109 1.966 3.825 2.07 1.716.105 3.433.21 5.737-1.965 2.306-2.174 3.458-2.331 4.66-2.593z"/><mask id="a"><path d="M29.146 26.816V8.157c0-.578-.374-.65-.524-.655h-.506c-.493 0-.536.557-.538.739V8.3c.002 3.609.01 18.254-.002 18.54a2.681 2.681 0 01-.82 1.887c-.809.695-1.618.603-1.618.603s-20.177 0-20.655-.026c-.38-.066-1.042-.21-1.606-1.01-.564-.798-.453-1.847-.453-1.847V8.315c0-.839-.675-.812-.675-.812h-.307c-.536 0-.585.588-.588.776v18.537c0 1.337.453 2.398 1.548 3.337 1.094.939 2.375.856 2.375.856s19.723 0 20.581-.002c.859-.003 1.986-.417 2.916-1.556.93-1.138.872-2.635.872-2.635z"/></mask><path d="M29.146 26.816V8.157c0-.578-.374-.65-.524-.655h-.506c-.493 0-.536.557-.538.739V8.3c.002 3.609.01 18.254-.002 18.54a2.681 2.681 0 01-.82 1.887c-.809.695-1.618.603-1.618.603s-20.177 0-20.655-.026c-.38-.066-1.042-.21-1.606-1.01-.564-.798-.453-1.847-.453-1.847V8.315c0-.839-.675-.812-.675-.812h-.307c-.536 0-.585.588-.588.776v18.537c0 1.337.453 2.398 1.548 3.337 1.094.939 2.375.856 2.375.856s19.723 0 20.581-.002c.859-.003 1.986-.417 2.916-1.556.93-1.138.872-2.635.872-2.635z"/><path d="M29.146 26.816h-20v.387l.015.387 19.985-.774zm-.524-19.314l.71-19.987-.355-.013h-.355v20zm-1.044.739l-20-.15v.15h20zm0 .06h-20v.008l20-.008zm-.002 18.54l-19.985-.758v.013l19.986.745zm-.82 1.887l13.039 15.165.431-.37.41-.396-13.88-14.399zm-1.618.603l2.26-19.872-1.127-.128h-1.133v20zm-20.655-.026l-3.395 19.71 1.134.195 1.148.064 1.113-19.97zm-1.606-1.01l-16.344 11.528.004.006 16.34-11.533zm-.453-1.847l19.89 2.098.11-1.046v-1.052h-20zM1.749 7.503v20h.388l.388-.015-.776-19.985zm-.895.776l-19.998-.289-.002.145v.144h20zm1.548 21.874L-10.624 45.33 2.403 30.153zm2.375.856v-20h-.643l-.64.041 1.283 19.96zm23.497-1.558l15.49 12.654.005-.008-15.495-12.646zm20.872-2.635V8.157h-40v18.659h40zm0-18.659c0-4.97-1.859-11.419-7.618-16.084-4.89-3.96-10.03-4.481-12.196-4.558l-1.42 39.974a19.462 19.462 0 01-11.56-4.332c-5.535-4.483-7.206-10.608-7.206-15h40zM28.622-12.498h-.506v40h.506v-40zm-.506 0a20.47 20.47 0 00-12.283 4.083A20.526 20.526 0 009.414-.38 21.134 21.134 0 007.579 8.09l39.999.299c-.006.733-.014 3.914-1.667 7.598a19.474 19.474 0 01-6.096 7.61 19.53 19.53 0 01-11.699 3.904v-40zM7.578 8.241V8.292h40V8.29v-.001-.001-.001-.001-.001-.001-.001-.001-.001-.001-.001-.001-.001-.001-.001-.001-.001-.001-.001-.001-.001-.001-.001-.001-.001-.001-.001-.001-.001-.001-.001-.001-.001-.001-.001-.001-.001-.001-.001-.001-.001-.001-.001-.001-.001-.001-.001-.001-.001h-40zm0 .05V8.302h40V8.3v-.001-.001-.001-.001-.001-.001-.001-.001h-40zm0 .018l.004 10.511a8367.03 8367.03 0 01-.002 7.252c-.002.788-.006.45.01.011L47.563 27.6c.02-.51.018-1.37.018-1.45l.002-1.808v-5.528c0-4.15-.003-8.719-.004-10.52l-40 .016zm.012 17.787c.05-1.35.384-7.042 5.285-11.767l27.761 28.798c6.396-6.166 6.852-13.536 6.927-15.54L7.59 26.096zm6.126-12.533a17.513 17.513 0 017.807-3.843 17.962 17.962 0 014.628-.362 19.227 19.227 0 011.172.093l.037.004.019.002c.01.001.019.002-2.241 19.874-2.26 19.872-2.25 19.873-2.241 19.874l.018.003c.013 0 .025.002.038.004a14.8 14.8 0 00.553.053 20.798 20.798 0 002.275.064 22.044 22.044 0 003.983-.468 22.487 22.487 0 0010.03-4.968l-26.078-30.33zm11.422 15.768v-20h-.001-.865a17598.02 17598.02 0 01-16.322-.01l-2.357-.007c-1.071-.005-.613-.013.002.022L3.37 49.274c.97.054 7.17.051 11.606.054l6.997.003h3.164v-20zM7.877 9.595c.432.074 2.526.427 4.938 1.653a17.618 17.618 0 016.401 5.514L-13.463 39.83c4.995 7.076 11.877 8.725 14.551 9.186l6.789-39.42zm11.344 7.173c2.348 3.33 2.908 6.51 3.08 7.955a16.586 16.586 0 01.049 3.439 18.522 18.522 0 01-.027.29l-.005.047-.002.024-.002.012c0 .005 0 .011-19.89-2.087-19.89-2.098-19.89-2.092-19.891-2.086l-.002.012a19.73 19.73 0 00-.036.385 21.677 21.677 0 00-.078 1.584c-.011.81.016 1.863.16 3.08.257 2.169 1.043 6.27 3.956 10.4L19.22 16.768zm3.203 9.68V8.315h-40v18.133h40zm0-18.133c0-6.89-3.412-14.004-10.265-17.999a20.69 20.69 0 00-11.136-2.8H.998c-.012.001-.024.002.751 19.987.776 19.985.763 19.985.751 19.985l-.024.001-.05.002a28.574 28.574 0 01-.3.008 19.374 19.374 0 01-10.112-2.626 19.387 19.387 0 01-7.239-7.434 19.028 19.028 0 01-2.351-9.124h40zM1.748-12.497h-.307v40h.307v-40zm-.307 0c-4.037 0-8.32 1.191-12.061 3.905a20.562 20.562 0 00-6.553 7.946 21.166 21.166 0 00-1.972 8.636l39.996.578c-.011.758-.045 3.996-1.784 7.718a19.438 19.438 0 01-6.2 7.5 19.477 19.477 0 01-11.426 3.717v-40zM-19.146 8.279V26.816h40v-.007-.007-.008-.008-.008-.008-.009-.009-.01-.009-.01-.01-.01-.011-.01-.012-.012-.012-.012-.012-.012-.013-.014-.013-.014-.014-.014-.014-.015-.015-.015-.016-.016-.016-.016-.016-.017-.017-.018-.017-.018-.018-.018-.019-.019-.019-.019-.02-.02-.02-.02-.02-.02-.022-.021-.021-.022-.022-.022-.023-.022-.023-.023-.023-.024-.023-.024-.024-.025-.024-.025-.025-.026-.025-.026-.026-.026-.026-.027-.026-.027-.028-.027-.028-.027-.028-.029-.028-.029-.028-.03-.028-.03-.03-.03-.03-.03-.03-.03-.031-.03-.032-.031-.032-.031-.032-.032-.033-.032-.032-.033-.033-.033-.033-.034-.034-.033-.034-.034-.035-.034-.035-.034-.035-.035-.036-.035-.036-.036-.035-.037-.036-.036-.037-.036-.037-.037-.037-.038-.037-.038-.037-.038-.038-.038-.039-.038-.039-.038-.04-.038-.04-.039-.04-.039-.04-.04-.039-.04-.04-.04-.04-.041-.041-.04-.042-.04-.042-.041-.042-.041-.042-.041-.042-.042-.042-.042-.043-.042-.043-.042-.043-.043-.043-.043-.043-.043-.043-.044-.043-.044-.043-.044-.044-.044-.044-.044-.044-.044-.045-.044-.045-.045-.044-.045-.045-.045-.045-.045-.045-.046-.045-.045-.046-.045-.046-.046-.045-.046-.046-.046-.046-.046-.046-.046-.046-.047-.046-.047-.046-.047-.046-.047-.046-.047-.047-.047-.047-.047-.047-.046-.047-.048-.047-.047-.047-.047-.047-.048-.047-.047-.048-.047-.048-.047-.048-.047-.048-.047-.048-.048-.047-.048-.048-.047-.048-.048-.048-.047-.048-.048-.048-.048-.047-.048-.048-.048-.048-.048-.047-.048-.048-.048-.048-.048-.048-.047-.048-.048-.048-.048-.048-.047-.048-.048-.048-.047-.048-.048-.048-.047-.048-.047-.048-.048-.047-.048-.047-.048-.047-.047-.048-.047-.048-.047-.047-.047-.048-.047-.047-.047-.047-.047-.047-.047-.046-.047-.047-.047-.046-.047-.046-.047-.046-.047-.046-.046-.047-.046-.046-.046-.046-.046-.046-.046-.045-.046-.045-.046-.046-.045-.045-.045-.046-.045-.045-.045-.044-.045-.045-.044-.045-.044-.045-.044-.044-.044-.044-.044-.044-.044-.043-.044-.044-.043-.043-.043-.043-.043-.043-.043-.043-.042-.042-.043-.042-.042-.042-.042-.042-.042-.041-.042-.041-.041-.041-.041-.041-.04-.042-.04-.04-.04-.04-.04-.04-.04-.04-.04-.039-.039-.04-.038-.039-.039-.038-.038-.039-.038-.038-.037-.038-.038-.037-.037-.037-.037-.037-.037-.036-.037-.036-.036-.036-.035-.036-.035-.035-.036-.034-.035-.035-.034-.034-.034-.034-.034-.034-.033-.033-.033-.033-.033-.032-.032-.033-.032-.031-.032-.031V9.6v-.03-.031-.031-.03-.03-.03-.03-.03-.03-.03-.028-.03-.028-.029-.028-.028V9.1v-.028-.027-.027-.028-.026-.027-.027-.026-.026-.026-.025-.026-.025-.025-.025-.024-.024-.025-.023-.024-.023-.024-.023-.022-.023-.022-.022-.022-.022-.02-.022-.02-.022-.02h-40zm0 18.537c0 7.063 2.92 13.705 8.522 18.514l26.052-30.354c1.294 1.111 2.854 2.871 3.993 5.373a15.716 15.716 0 011.433 6.467h-40zm8.523 18.514A23.586 23.586 0 00-.143 50.5a23.616 23.616 0 005.087.51 21.335 21.335 0 00.991-.034l.063-.004.03-.002h.016c.008-.001.016-.002-1.267-19.96C3.494 11.05 3.5 11.05 3.509 11.05l.015-.002.03-.001a429.613 429.613 0 01.185-.01 19.735 19.735 0 01.755-.025c.342-.004.702.002 1.077.021.737.037 1.607.13 2.571.334 1.88.398 4.642 1.34 7.285 3.609l-26.05 30.354zm15.4-14.32v20H7.872l6.875-.001c5.007 0 10.202 0 10.668-.002l-.113-40H24.22l-2.443.001-7.033.001H4.778v20zm20.638 19.997c7.104-.02 13.8-3.336 18.348-8.902L12.786 16.799c2.687-3.29 7.129-5.777 12.516-5.792l.113 40zm18.354-8.91c3.245-3.977 4.434-8.096 4.913-10.529a24.742 24.742 0 00.464-4.58 21.801 21.801 0 00-.015-.934c0-.006 0-.013-19.985.762-19.985.774-19.986.767-19.986.761v-.013l-.001-.025a18.379 18.379 0 01.014-1.619c.033-.576.105-1.28.262-2.075.275-1.4 1.028-4.201 3.344-7.039l30.99 25.291z" mask="url(#a)"/></g></g></symbol><symbol id="logo-mobile"><g fill="none"><g clip-path="url(#clip0_153_267)"><path d="M6.07 20.72v-2.26a143.265 143.265 0 0120.17-1.33c0 .6 0 1.21-.06 1.82a25.518 25.518 0 016-1.82A16.67 16.67 0 00.19 20.39l5.88.33zM27.24 24.23c-1.16 1.28-1.39 1.2-1.39 3.45v9.18A16.64 16.64 0 0033.32 23a17.302 17.302 0 00-.32-3.1 33.109 33.109 0 00-5.76 4.33zM6.36 25.72s-3.79-1.44-5.19-1.83A8.541 8.541 0 000 23.61a16.65 16.65 0 008.68 14L6.36 25.72z" fill="#FDC305"/><path d="M26.29 17.12A89.799 89.799 0 0024.89.65S24.75-.64 24 .41a14.22 14.22 0 00-1.2 3.94 70.34 70.34 0 00-12.77.34C9.24 2 7.85.75 7.18 1c-.67.25-.72 3.31-.72 3.31l-.33 14.1a143.211 143.211 0 0120.16-1.29z" fill="#F06351"/><path d="M12.41 14c0-.09 1 .68 1.41.92.41.24.61.42.61.59 0 .17-.27.34-.63.34s-.91-.12-1-.27h1.23A8.34 8.34 0 0112.41 14zM19.89 14.11l-1.09 1.33c0 .06-.17.35.18.3a7.351 7.351 0 001.22-.29c.11 0 .07-.19-.11-.17-.18.02-.69.05-1 .11l.84-1.26s.07-.13-.04-.02zM16.75 20.2a2.3 2.3 0 001.09-1c.28-.65 0-.91-.44-1a2.43 2.43 0 00-1.74.34c-.39.36-.34.72-.05 1a5.34 5.34 0 001.14.66z" fill="#000"/><path d="M16.35 21.45a1.92 1.92 0 01-.46.6 1.73 1.73 0 01-1 .38 2.15 2.15 0 01-1.47-.43 2.3 2.3 0 01-.53-.44c-.1-.11-.223-.2-.36-.26 0 0 .75 4.1 2.57 4.75 1.82.65 2.14-.75 2.2-1.13a5.61 5.61 0 00-.82-3.23c-.02-.31-.03-.11-.13-.24z" fill="#F06351"/><path d="M14.71 22.59a3.44 3.44 0 01-2.361-1.466.14.14 0 01.031-.154.14.14 0 01.2 0 3.26 3.26 0 002.11 1.3 2.09 2.09 0 001.63-1l.14-.19.1.21s.37.76 1 .8c.63.04 1.05-.41 1.61-1.28a.14.14 0 01.2 0 .15.15 0 01.05.2c-.64 1-1.27 1.44-1.88 1.4a1.549 1.549 0 01-1.12-.76 2.26 2.26 0 01-1.71.94z" fill="#000"/><path d="M26.24 18.92a58.634 58.634 0 00-5.07 5.19A31.633 31.633 0 0115.88 29c-.22-.53-1.62-1.51-1.62-1.51s-3.13-2.14-5.18-3.82a34.139 34.139 0 01-3.13-3l-2-.11a22.57 22.57 0 0012 8.8c.86-.14 3.27-1.86 5.07-3.26a58.13 58.13 0 005.94-5.89 6.15 6.15 0 001.14-2c-1.1.39-1.86.71-1.86.71z" fill="#F06351"/></g></g></symbol><symbol id="logo-text"><g fill="none"><g clip-path="url(#clip0_135_3354)" fill="#111"><path d="M1.264 16.538A6.865 6.865 0 010 12.231V5.846a6.95 6.95 0 011.185-4.384C2.055.462 3.398 0 5.374 0s3.24.462 4.03 1.308a5.422 5.422 0 011.186 3.769v1.538H6.718V4.846a3.693 3.693 0 00-.238-1.538 1.12 1.12 0 00-.456-.473 1.163 1.163 0 00-.65-.143c-.553 0-.948.154-1.106.539a4.846 4.846 0 00-.237 1.692v8.23a3.111 3.111 0 00.316 1.616c.158.385.553.539 1.106.539s.87-.154 1.027-.539c.18-.52.26-1.067.238-1.615v-1.846h3.872v1.538a5.775 5.775 0 01-1.185 3.846c-.79.923-2.134 1.385-4.031 1.385-1.897-.077-3.32-.539-4.11-1.539zM15.253.23h4.504l3.32 17.54H19.44l-.632-3.693h-2.608l-.632 3.692h-3.715L15.253.231zm3.24 11.54l-.948-6.847-.949 6.846h1.897zM25.843 3.154h-2.687V.23h9.404v2.846h-2.687v14.692h-4.03V3.154zM39.752.23h6.955v1.847h-4.505v5.77h3.635v1.768h-3.635v6.462h4.505v1.77h-7.034V.23h.079zM48.761.23H50.5l5.137 11.616V.231h2.055v17.538h-1.58l-5.217-12v12h-2.134V.231zM60.063.23h6.954v1.847h-4.504v5.77h3.635v1.768h-3.635v6.462h4.504v1.77h-6.954V.23zM69.072.23h3.635a6.451 6.451 0 014.03 1.078c.87.692 1.265 1.923 1.265 3.538 0 2.23-.71 3.616-2.212 4.077l2.528 8.77h-2.45l-2.37-8.231h-1.976v8.23h-2.529V.231h.079zm3.477 7.54a3.524 3.524 0 002.292-.616c.474-.385.711-1.154.711-2.308a4.848 4.848 0 00-.237-1.692 1.975 1.975 0 00-.869-.923 3.69 3.69 0 00-1.739-.308h-1.106v5.77h.948v.076zM81.163 16.462A7.613 7.613 0 0180.058 12V6.154a12.26 12.26 0 01.395-3.308 3.916 3.916 0 011.502-2c.882-.508 1.9-.75 2.924-.692 1.66 0 2.845.384 3.556 1.23a5.771 5.771 0 011.107 3.847v.615H87.17v-.538a11.03 11.03 0 00-.158-1.923 1.533 1.533 0 00-.633-1A2.493 2.493 0 0084.878 2a2.417 2.417 0 00-1.58.462c-.187.152-.338.34-.447.551a1.701 1.701 0 00-.186.68 14.01 14.01 0 00-.158 2.076v6.539a6.818 6.818 0 00.474 2.923c.316.615.949.846 1.897.846.374.045.754-.018 1.092-.182.337-.165.617-.422.805-.741a6.908 6.908 0 00.553-3.077v-1.23h-2.292v-1.77h4.584v8.692h-1.58l-.238-2a3.143 3.143 0 01-1.226 1.658 3.288 3.288 0 01-2.014.573 4.046 4.046 0 01-1.899-.352 3.932 3.932 0 01-1.5-1.186zM94.678 11.615L90.805.308h2.371l2.766 8.461L98.63.308H101l-3.873 11.307v6.154h-2.37v-6.154h-.08z"/></g></g></symbol><symbol id="telegram"><g fill="none"><path fill-rule="evenodd" clip-rule="evenodd" d="M23.46 3.153c.18.15.265.382.227.611l-2.626 15.757a.657.657 0 01-1.012.439l-7.878-5.253a.657.657 0 01-.149-.956l2.611-3.263-4.36 2.906a.657.657 0 01-.658.041L4.363 10.81a.657.657 0 01.073-1.205l18.383-6.566a.657.657 0 01.642.115zm-17.134 7.17l3.536 1.768 7.561-5.041a.656.656 0 01.877.956l-4.805 6.006 6.438 4.292L22.208 4.65 6.326 10.323z" fill="#666"/></g></symbol><symbol id="vkontakte"><g fill="none"><path d="M1 5.339c0-.855.515-1.316 1.545-1.383l3.97.025a.52.52 0 01.533.377c.409 1.257.866 2.343 1.372 3.257.506.913 1.168 1.965 1.985 3.156.071.15.187.226.346.226.125 0 .223-.059.293-.176l.08-.277.027-4.35c0-.302-.075-.503-.226-.604-.151-.1-.431-.176-.84-.226-.32-.05-.48-.235-.48-.553 0-.067.01-.118.027-.151.373-1.09 1.44-1.635 3.198-1.635L14.322 3c.675 0 1.234.16 1.678.478.444.318.666.821.666 1.509v5.708c.125.084.24.126.347.126.266 0 .497-.15.692-.453 1.954-2.582 3.011-4.308 3.17-5.18 0-.017.019-.059.054-.126.125-.251.329-.47.613-.654.284-.184.533-.31.746-.377a.554.554 0 01.24-.05h4.13l.266.025c.355 0 .63.16.826.478.07.1.12.21.146.327.027.117.045.234.054.352.009.117.013.184.013.2v.177c-.124.687-.44 1.42-.946 2.2-.506.78-1.15 1.622-1.931 2.528-.782.905-1.27 1.5-1.466 1.785-.16.201-.24.386-.24.553 0 .135.071.286.213.453l3.89 4.627c.213.269.32.562.32.88 0 .386-.16.705-.48.956-.32.252-.701.394-1.145.428l-.453.025h-4.05a.855.855 0 00-.106.012.862.862 0 01-.107.013c-.39 0-.755-.16-1.092-.478-.125-.134-.96-1.123-2.505-2.967a1.387 1.387 0 00-.373-.327c-.07.268-.164.654-.28 1.157-.115.503-.2.863-.253 1.081l-.08.427c-.177.587-.55.94-1.119 1.057l-.373.025h-2.61c-1.475 0-2.945-.637-4.41-1.911-1.466-1.275-2.784-2.922-3.957-4.942-1.172-2.02-2.264-4.372-3.277-7.054A1.916 1.916 0 011 5.338zm16.013 6.513c-.373 0-.71-.096-1.013-.29-.302-.192-.453-.456-.453-.791V4.987c0-.336-.089-.575-.266-.717-.178-.143-.489-.214-.933-.214l-1.518.05c-.764 0-1.341.126-1.732.378.781.352 1.172.922 1.172 1.71v4.426a1.5 1.5 0 01-.533 1.044 1.59 1.59 0 01-1.066.414c-.532 0-.94-.243-1.225-.729C8.06 9.371 7.03 7.493 6.356 5.716l-.24-.654-3.544-.025c-.231 0-.36.013-.386.038-.027.025-.04.096-.04.213 0 .151.017.31.053.478l.56 1.409c1.491 3.638 3.112 6.505 4.862 8.6 1.75 2.096 3.468 3.144 5.155 3.144h2.665c.106 0 .186-.03.24-.088.053-.06.097-.172.133-.34l.053-.251.506-2.213c.142-.302.267-.503.373-.604a.975.975 0 01.693-.277c.426 0 .861.243 1.305.73l2.265 2.716c.142.218.293.327.453.327h4.396c.533 0 .8-.126.8-.378a.466.466 0 00-.08-.251l-3.864-4.552c-.302-.352-.453-.73-.453-1.131 0-.403.142-.788.427-1.157.23-.336.679-.893 1.345-1.673a37.63 37.63 0 001.745-2.187c.498-.68.826-1.296.986-1.849l.08-.327a.371.371 0 01-.027-.163.574.574 0 00-.026-.189h-4.183c-.267.1-.48.252-.64.453l-.16.478c-.444 1.156-1.607 2.942-3.49 5.356a1.892 1.892 0 01-1.305.503z" fill="#666"/></g></symbol><symbol id="weight-down"><g fill="none"><path d="M28.203 0h-.195c-.33.187-.593.474-.75.82a8.028 8.028 0 00-.664 1.757.84.84 0 01-.761.691 3.77 3.77 0 00-2.69 1.948c-.372.661-.69 1.35-.952 2.062-.73 1.897-1.29 3.856-1.98 5.768-.324.872-.339.872-1.316.872-1.168 0-1.085-.18-1.1 1.108 0 .407.123.613.555.593.133 0 .334-.067.385.108.052.175-.123.252-.226.355a4.626 4.626 0 01-2.227 1.258c-.977.263-1.975.47-2.926.789-2.443.82-4.7 1.964-6.46 3.902a14.44 14.44 0 00-2.437 4.041C2.57 30.526 1.656 35.217.946 39.954a97.064 97.064 0 00-.75 6.7C.102 47.759 0 48.877 0 50h17.141a1.126 1.126 0 00-.118-.66 2.577 2.577 0 00-1.97-1.582c-.36-.083-.401-.191-.18-.475.36-.482.637-1.022.818-1.597.838-2.48 1.162-5.067 1.568-7.63.23-1.956.83-3.85 1.77-5.582a11.126 11.126 0 012.874-3.283c.427-.325.443-.325.515.227.051.366.061.742.087 1.113a48.166 48.166 0 01-.092 7.31 31.866 31.866 0 00-.078 5.67A38.826 38.826 0 0023.503 50h6.84a2.79 2.79 0 00-2.18-2.289 4.62 4.62 0 00-1.934.103c-.309.073-.438 0-.463-.335a29.113 29.113 0 01.514-8.154 91.803 91.803 0 001.574-9.371 9.163 9.163 0 011.172-3.609c.612-1.092 1.147-2.226 1.749-3.324a3.031 3.031 0 00.216-2.676c-.139-.366-.273-.737-.442-1.087-.515-1.005-1.029-2-1.502-3.016-.252-.515-.196-.577.365-.593.838 0 .838 0 .854-.845v-.34c0-.356-.134-.552-.515-.516h-.781c-.355 0-.458-.149-.37-.515a3.217 3.217 0 012.638-2.284 11.291 11.291 0 013.404.222.513.513 0 00.643-.33c.206-.515.432-1.03.664-1.546a.517.517 0 00-.052-.588c-1.646-2.093-3.43-4.046-5.863-5.299a.767.767 0 01-.452-.577 10.123 10.123 0 00-.653-2.144A1.803 1.803 0 0028.203 0z" fill="#000"/></g></symbol><symbol id="weight-up"><g fill="none"><path d="M61.55 2.9A7.599 7.599 0 0163.8.6c.5-.35.8-.35 1.1.3.4.95.75 1.95.45 3a1.145 1.145 0 00.2 1.05c.3.4.55.8.8 1.15a3.136 3.136 0 01.45 3.1 2.715 2.715 0 00-.1 1.55c.1.495.1 1.005 0 1.5a1.875 1.875 0 01-1.35 1.6c-.64.122-1.21.478-1.6 1a.525.525 0 01-.45.25c-.6.1-2.1-1.25-2.1-1.85v-.3c.05-1.8-.05-1.95-1.7-2.7a2.194 2.194 0 01-.9-.6c-.3-.4-.7-.35-1.15-.2-.45.15-.7.45-.65.95.15 1.21.2 2.431.15 3.65a.94.94 0 00.1.4c1.55 2.25 2.15 4.9 2.9 7.45.6 1.95 1.7 3 3.7 3.15.32.026.638.076.95.15a2.08 2.08 0 011.7 1.6c.35 1.05.15 1.3-.9 1.3h-3.25a1.62 1.62 0 01-1.15-.4 5.855 5.855 0 00-1.7-1 3.63 3.63 0 01-1.7-1.3 14.304 14.304 0 00-2-2.25c-1.4-1.45-2.9-2.85-4.2-4.35a5.69 5.69 0 01-1.6-3.8c0-.45-.1-.65-.6-.45a.965.965 0 01-.5.15c-1.4 0-2.1.85-2.6 2.1-.45 1.05-1.05 2.05-1.6 3.1A5.194 5.194 0 0044 22c0 1.2.3 1.6 1.4 2 .7.25 1.35.5 1.7 1.2.4.8.3 1-.55 1.05h-3.4a.94.94 0 01-.95-.55l-.9-1.5a3.024 3.024 0 01-.35-2.7 5.93 5.93 0 00.05-2.65 4.209 4.209 0 01.85-3.5c.3-.35.3-.5-.2-.6a25.028 25.028 0 01-5.9-2.05.05.05 0 01-.05-.05c-1.6-.6-1.9-.5-2.35 1.15-.4 1.4-.8 2.8-1.1 4.25-.35 1.6.05 3.1.55 4.6.2.6.8.55 1.25.7 1 .3 1.85.7 2.25 1.75.35.8.3.9-.55.9-.85 0-1.7-.05-2.6 0a3.32 3.32 0 01-2.1-.7c-2.4-1.6-3.1-4.05-3.3-6.7-.1-1.65-1-2.95-2.05-4.2-.2-.25-.4-.35-.7-.15a22.16 22.16 0 01-3.35 1.5 13.355 13.355 0 00-6.1 4.4 5.315 5.315 0 00-1.1 2.55c-.15.9.1 1.3 1 1.55s1.35.75 1.45 1.7c.05.4-.1.6-.5.6h-4.05a.826.826 0 01-.65-.4 4.28 4.28 0 01-.95-2.75 25.292 25.292 0 01.45-5.15 3.149 3.149 0 011.7-2.4c2.95-1.4 4.5-4.05 5.9-6.8.3-.55.05-.65-.45-.6a8.234 8.234 0 00-3.85 1.6 35.307 35.307 0 00-4.15 3.55 8.335 8.335 0 01-5.15 2.45c-3.65.2-5.35-1.85-5.2-5.15a4.845 4.845 0 011.2-3.05 2.125 2.125 0 012.25-.75c.75.2.95.6.65 1.35-.15.3-.35.55-.5.85a3.75 3.75 0 00-.5 1c-.55 1.5.2 2.55 1.75 2.7 1.65.15 3-.55 4.25-1.55a22.474 22.474 0 004-4.15 10.394 10.394 0 017.2-4.05c1.15-.15 2.15-.65 3.25-.95 2.057-.627 4.2-.93 6.35-.9a6.5 6.5 0 002.9-.55c2.45-1 5-1 7.55-.5 2 .4 4 .9 5.95 1.4a8.29 8.29 0 003.5-.1 33.895 33.895 0 016.7-1 9.08 9.08 0 014.3.85c1 .45 1 .45.75 1.4z" fill="#000"/></g></symbol><symbol id="youtube"><g fill="none"><path d="M17.85 10.793l-5.236-3.491a.655.655 0 00-1.014.545v6.982a.654.654 0 001.014.546l5.237-3.491a.655.655 0 000-1.091zm-4.94 2.814V9.07l3.403 2.27-3.404 2.268zm12.48-8.563a2.4 2.4 0 00-1.452-1.637C20.218 1.978 14.251 2 14 2c-.25 0-6.218-.022-9.938 1.407A2.4 2.4 0 002.61 5.044C2.327 6.113 2 8.076 2 11.338c0 3.262.327 5.226.61 6.295a2.4 2.4 0 001.452 1.636c3.72 1.43 9.687 1.407 9.938 1.407h.076c.753 0 6.317-.043 9.862-1.407a2.4 2.4 0 001.451-1.636c.284-1.07.611-3.033.611-6.295s-.327-5.225-.61-6.294zm-1.266 12.261a1.09 1.09 0 01-.655.742c-3.49 1.342-9.404 1.32-9.469 1.32-.066 0-5.978.022-9.47-1.32a1.09 1.09 0 01-.654-.742c-.261-1.003-.567-2.847-.567-5.967 0-3.12.306-4.963.567-5.967a1.09 1.09 0 01.655-.742C8.02 3.287 13.935 3.31 14 3.31c.066 0 5.978-.022 9.47 1.32a1.092 1.092 0 01.654.742c.262 1.004.567 2.847.567 5.967 0 3.12-.305 4.964-.567 5.967z" fill="#666"/></g></symbol></svg>